<svg width="60" height="61" viewBox="0 0 60 61" fill="none" xmlns="http://www.w3.org/2000/svg">
<path d="M39.75 0C40.2937 2.29287e-05 40.819 0.196928 41.2288 0.554301C41.6386 0.911674 41.9051 1.40534 41.979 1.944L42 2.25V9.225C44.1614 9.66738 46.1452 10.7348 47.7052 12.2948C49.2652 13.8548 50.3326 15.8386 50.775 18H57.75C58.3201 18.0002 58.8688 18.2167 59.2854 18.6059C59.7019 18.9951 59.9552 19.5279 59.9941 20.0966C60.0329 20.6654 59.8545 21.2277 59.4947 21.6699C59.135 22.1121 58.6207 22.4013 58.056 22.479L57.75 22.5H51V27.75H57.75C58.2937 27.75 58.819 27.9469 59.2288 28.3043C59.6386 28.6617 59.9051 29.1553 59.979 29.694L60 30C60 30.5437 59.8031 31.069 59.4457 31.4788C59.0883 31.8886 58.5947 32.1551 58.056 32.229L57.75 32.25H51V37.5H57.75C58.2937 37.5 58.819 37.6969 59.2288 38.0543C59.6386 38.4117 59.9051 38.9053 59.979 39.444L60 39.75C60 40.2937 59.8031 40.819 59.4457 41.2288C59.0883 41.6386 58.5947 41.9051 58.056 41.979L57.75 42H50.775C50.3331 44.1619 49.2659 46.1464 47.7059 47.7069C46.1459 49.2675 44.1618 50.3354 42 50.778V57.753C41.9998 58.3231 41.7833 58.8718 41.3941 59.2884C41.0049 59.7049 40.4721 59.9582 39.9034 59.9971C39.3346 60.0359 38.7723 59.8575 38.3301 59.4977C37.8879 59.138 37.5987 58.6238 37.521 58.059L37.5 57.753V51H32.247L32.25 57.753C32.25 58.2967 32.0531 58.822 31.6957 59.2318C31.3383 59.6416 30.8447 59.9081 30.306 59.982L30 60C29.4563 60 28.931 59.8031 28.5212 59.4457C28.1114 59.0883 27.8449 58.5947 27.771 58.056L27.75 57.75L27.747 50.997H22.5V57.75C22.5 58.2937 22.3031 58.819 21.9457 59.2288C21.5883 59.6386 21.0947 59.9051 20.556 59.979L20.25 60C19.7063 60 19.181 59.8031 18.7712 59.4457C18.3614 59.0883 18.0949 58.5947 18.021 58.056L18 57.75V50.775C15.8386 50.3326 13.8548 49.2652 12.2948 47.7052C10.7348 46.1452 9.66738 44.1614 9.225 42H2.25C1.67993 41.9998 1.13118 41.7833 0.714625 41.3941C0.298073 41.0049 0.0447783 40.4721 0.00592232 39.9034C-0.0329337 39.3346 0.145546 38.7723 0.505297 38.3301C0.865049 37.8879 1.37925 37.5987 1.944 37.521L2.25 37.5L9 37.497V32.247L2.25 32.25C1.70629 32.25 1.18097 32.0531 0.771208 31.6957C0.361442 31.3383 0.0949448 30.8447 0.0209999 30.306L0 30C2.29287e-05 29.4563 0.196928 28.931 0.554301 28.5212C0.911674 28.1114 1.40534 27.8449 1.944 27.771L2.25 27.75L9 27.747V22.497L2.25 22.5C1.70629 22.5 1.18097 22.3031 0.771208 21.9457C0.361442 21.5883 0.0949448 21.0947 0.0209999 20.556L0 20.25C2.29287e-05 19.7063 0.196928 19.181 0.554301 18.7712C0.911674 18.3614 1.40534 18.0949 1.944 18.021L2.25 18L9.225 17.997C9.66791 15.8362 10.7356 13.853 12.2955 12.2936C13.8555 10.7342 15.839 9.66717 18 9.225V2.25C18.0002 1.67993 18.2167 1.13118 18.6059 0.714625C18.9951 0.298073 19.5279 0.0447783 20.0966 0.00592232C20.6654 -0.0329337 21.2277 0.145546 21.6699 0.505297C22.1121 0.865049 22.4013 1.37925 22.479 1.944L22.5 2.25V8.997H27.747L27.75 2.25C27.75 1.70629 27.9469 1.18097 28.3043 0.771208C28.6617 0.361442 29.1553 0.0949448 29.694 0.0209999L30 0C30.5437 2.29287e-05 31.069 0.196928 31.4788 0.554301C31.8886 0.911674 32.1551 1.40534 32.229 1.944L32.25 2.25L32.247 8.997H37.5V2.25C37.4999 1.75775 37.6612 1.27905 37.9593 0.887271C38.2573 0.495496 38.6756 0.212267 39.15 0.0809999L39.444 0.0209999L39.75 0ZM39.75 13.5H20.25C18.4598 13.5 16.7429 14.2112 15.477 15.477C14.2112 16.7429 13.5 18.4598 13.5 20.25V39.75C13.5 41.5402 14.2112 43.2571 15.477 44.523C16.7429 45.7888 18.4598 46.5 20.25 46.5H39.75C41.5402 46.5 43.2571 45.7888 44.523 44.523C45.7888 43.2571 46.5 41.5402 46.5 39.75V20.25C46.5 18.4598 45.7888 16.7429 44.523 15.477C43.2571 14.2112 41.5402 13.5 39.75 13.5ZM30.015 21.015C32.4019 21.015 34.6911 21.9632 36.379 23.651C38.0668 25.3389 39.015 27.6281 39.015 30.015C39.015 32.4019 38.0668 34.6911 36.379 36.379C34.6911 38.0668 32.4019 39.015 30.015 39.015C27.6281 39.015 25.3389 38.0668 23.651 36.379C21.9632 34.6911 21.015 32.4019 21.015 30.015C21.015 27.6281 21.9632 25.3389 23.651 23.651C25.3389 21.9632 27.6281 21.015 30.015 21.015ZM30.015 25.515C28.8215 25.515 27.6769 25.9891 26.833 26.833C25.9891 27.6769 25.515 28.8215 25.515 30.015C25.515 31.2085 25.9891 32.3531 26.833 33.197C27.6769 34.0409 28.8215 34.515 30.015 34.515C31.2085 34.515 32.3531 34.0409 33.197 33.197C34.0409 32.3531 34.515 31.2085 34.515 30.015C34.515 28.8215 34.0409 27.6769 33.197 26.833C32.3531 25.9891 31.2085 25.515 30.015 25.515Z" fill="white"/>
</svg>
