<svg width="64" height="60" viewBox="0 0 64 60" fill="none" xmlns="http://www.w3.org/2000/svg">
<path d="M30 54.75C21.9 54.75 14.025 50.7 9.3 43.5H21V39H3V57H7.5V48.675C13.125 55.425 21.225 59.25 30 59.25V54.75ZM63.75 45.75V41.25H59.025C58.8 39.9 58.125 38.55 57.45 37.2L60.825 33.825L57.675 30.675L54.3 34.05C53.175 33.375 51.825 32.7 50.25 32.475V27.75H45.75V32.475C44.4 32.7 43.05 33.375 41.7 34.05L38.325 30.675L35.175 33.825L38.55 37.2C37.875 38.325 37.2 39.675 36.975 41.25H32.25V45.75H36.975C37.2 47.1 37.875 48.45 38.55 49.8L35.175 53.175L38.325 56.325L41.7 52.95C42.825 53.625 44.175 54.3 45.75 54.525V59.25H50.25V54.525C51.6 54.3 52.95 53.625 54.3 52.95L57.675 56.325L60.825 53.175L57.45 49.8C58.125 48.675 58.8 47.325 59.025 45.75H63.75ZM48 50.25C44.175 50.25 41.25 47.325 41.25 43.5C41.25 39.675 44.175 36.75 48 36.75C51.825 36.75 54.75 39.675 54.75 43.5C54.75 47.325 51.825 50.25 48 50.25ZM39 16.5H50.7C43.275 5.025 27.975 1.875 16.5 9.3C9.525 13.8 5.25 21.675 5.25 30H0.75C0.75 13.8 13.8 0.75 30 0.75C38.775 0.75 46.875 4.575 52.5 11.325V3H57V21H39V16.5Z" fill="white"/>
</svg>
