<svg width="32" height="32" viewBox="0 0 32 32" fill="none" xmlns="http://www.w3.org/2000/svg">
<circle cx="16" cy="16" r="16" fill="#55575F"/>
<path fill-rule="evenodd" clip-rule="evenodd" d="M13.744 10.074C12.7679 10.1183 11.9219 10.3583 11.2388 11.0425C10.5533 11.7303 10.3176 12.5845 10.2735 13.556C10.246 14.1623 10.0856 18.7432 10.5509 19.9446C10.8647 20.755 11.4828 21.3782 12.296 21.6948C12.6754 21.8433 13.1086 21.9438 13.744 21.9731C19.0568 22.2149 21.0262 22.0833 21.8567 19.9446C22.004 19.5639 22.1055 19.1286 22.1335 18.4911C22.3763 13.1339 22.0941 11.9727 21.1682 11.0425C20.4338 10.3056 19.5699 9.80406 13.744 10.074ZM13.7929 20.8957C13.2112 20.8693 12.8956 20.7718 12.685 20.6898C12.1552 20.4827 11.7572 20.0842 11.5526 19.5544C11.1982 18.6416 11.3158 14.3061 11.3474 13.6046C11.3784 12.9174 11.5168 12.2894 11.9989 11.8045C12.5955 11.206 13.3663 10.9126 18.6147 11.1508C19.2996 11.182 19.9254 11.3209 20.4087 11.8045C21.0053 12.4031 21.3012 13.1844 21.0602 18.4428C21.0339 19.0264 20.9367 19.3431 20.855 19.5544C20.315 20.9461 19.0729 21.1393 13.7929 20.8957ZM18.6726 12.8281C18.6726 13.2243 18.9929 13.5466 19.3885 13.5466C19.7841 13.5466 20.105 13.2243 20.105 12.8281C20.105 12.4318 19.7841 12.1099 19.3885 12.1099C18.9929 12.1099 18.6726 12.4318 18.6726 12.8281ZM13.1402 16.0233C13.1402 17.7208 14.5118 19.0971 16.2038 19.0971C17.8958 19.0971 19.2674 17.7208 19.2674 16.0233C19.2674 14.3257 17.8958 12.9503 16.2038 12.9503C14.5118 12.9503 13.1402 14.3257 13.1402 16.0233ZM14.2153 16.0233C14.2153 14.9219 15.1054 14.0283 16.2038 14.0283C17.3021 14.0283 18.1923 14.9219 18.1923 16.0233C18.1923 17.1252 17.3021 18.0191 16.2038 18.0191C15.1054 18.0191 14.2153 17.1252 14.2153 16.0233Z" fill="white"/>
</svg>
